<mxfile host="app.diagrams.net" modified="2020-03-21T08:27:39.019Z" agent="Mozilla/5.0 (Macintosh; Intel Mac OS X 10_13_6) AppleWebKit/537.36 (KHTML, like Gecko) Chrome/80.0.3987.132 Safari/537.36" etag="MYBjmQIdbA5AF-AUxFvc" version="12.8.8" type="github">
  <diagram id="RR_c8ggQtL3WIy5Bg4WH" name="Page-1">
    <mxGraphModel dx="900" dy="1023" grid="1" gridSize="10" guides="1" tooltips="1" connect="1" arrows="1" fold="1" page="0" pageScale="1" pageWidth="827" pageHeight="1169" background="#FFFFFF" math="0" shadow="0">
      <root>
        <mxCell id="0" />
        <mxCell id="1" parent="0" />
        <mxCell id="zOEphUjOcovV0QVA03cs-23" style="edgeStyle=orthogonalEdgeStyle;rounded=1;orthogonalLoop=1;jettySize=auto;html=1;exitX=0;exitY=0.5;exitDx=0;exitDy=0;entryX=1;entryY=0.5;entryDx=0;entryDy=0;" parent="1" target="IMYLu6TOnblpSN0GXEDV-3" edge="1" source="523SSdcDzX9E7wjEWsFp-1">
          <mxGeometry relative="1" as="geometry">
            <mxPoint x="472" y="303" as="sourcePoint" />
            <mxPoint x="437" y="423" as="targetPoint" />
          </mxGeometry>
        </mxCell>
        <mxCell id="zOEphUjOcovV0QVA03cs-24" value="&lt;font size=&quot;1&quot; color=&quot;#ff0000&quot;&gt;&lt;b style=&quot;font-size: 14px&quot;&gt;只读权限&lt;/b&gt;&lt;/font&gt;" style="text;html=1;strokeColor=none;fillColor=none;align=center;verticalAlign=middle;whiteSpace=wrap;rounded=0;dashed=1;" parent="1" vertex="1">
          <mxGeometry x="379" y="439.5" width="72" height="20" as="geometry" />
        </mxCell>
        <mxCell id="zOEphUjOcovV0QVA03cs-31" value="" style="group" parent="1" vertex="1" connectable="0">
          <mxGeometry x="1156" y="271" width="151" height="242" as="geometry" />
        </mxCell>
        <mxCell id="zOEphUjOcovV0QVA03cs-32" value="" style="rounded=1;whiteSpace=wrap;html=1;dashed=1;fillColor=#f5f5f5;strokeColor=#666666;fontColor=#333333;" parent="zOEphUjOcovV0QVA03cs-31" vertex="1">
          <mxGeometry width="151" height="242.00000000000003" as="geometry" />
        </mxCell>
        <mxCell id="zOEphUjOcovV0QVA03cs-33" value="" style="group" parent="zOEphUjOcovV0QVA03cs-31" vertex="1" connectable="0">
          <mxGeometry x="14.12230215827338" y="15.33031674208145" width="117.32374100719423" height="212.43438914027152" as="geometry" />
        </mxCell>
        <mxCell id="zOEphUjOcovV0QVA03cs-34" value="" style="group" parent="zOEphUjOcovV0QVA03cs-33" vertex="1" connectable="0">
          <mxGeometry width="117.32374100719423" height="113.88235294117648" as="geometry" />
        </mxCell>
        <mxCell id="zOEphUjOcovV0QVA03cs-35" value="" style="outlineConnect=0;fillColor=#dae8fc;strokeColor=#6c8ebf;dashed=0;verticalLabelPosition=bottom;verticalAlign=top;align=center;html=1;fontSize=12;fontStyle=0;aspect=fixed;pointerEvents=1;shape=mxgraph.aws4.traditional_server;" parent="zOEphUjOcovV0QVA03cs-34" vertex="1">
          <mxGeometry y="28.47058823529412" width="48.88489208633093" height="84.73381294964028" as="geometry" />
        </mxCell>
        <mxCell id="zOEphUjOcovV0QVA03cs-36" value="" style="outlineConnect=0;fillColor=#dae8fc;strokeColor=#6c8ebf;dashed=0;verticalLabelPosition=bottom;verticalAlign=top;align=center;html=1;fontSize=12;fontStyle=0;aspect=fixed;pointerEvents=1;shape=mxgraph.aws4.traditional_server;" parent="zOEphUjOcovV0QVA03cs-34" vertex="1">
          <mxGeometry x="68.43884892086331" y="28.47058823529412" width="48.88489208633093" height="84.73381294964028" as="geometry" />
        </mxCell>
        <mxCell id="zOEphUjOcovV0QVA03cs-37" value="&lt;font style=&quot;font-size: 15px&quot;&gt;仲谋&lt;/font&gt;" style="text;html=1;strokeColor=none;fillColor=none;align=center;verticalAlign=middle;whiteSpace=wrap;rounded=0;dashed=1;" parent="zOEphUjOcovV0QVA03cs-34" vertex="1">
          <mxGeometry x="38.02158273381295" width="43.453237410071935" height="21.900452488687783" as="geometry" />
        </mxCell>
        <mxCell id="zOEphUjOcovV0QVA03cs-38" value="主" style="text;html=1;strokeColor=none;fillColor=none;align=center;verticalAlign=middle;whiteSpace=wrap;rounded=0;dashed=1;" parent="zOEphUjOcovV0QVA03cs-34" vertex="1">
          <mxGeometry x="2.715827338129496" y="75.55656108597286" width="43.453237410071935" height="21.900452488687783" as="geometry" />
        </mxCell>
        <mxCell id="zOEphUjOcovV0QVA03cs-39" value="从" style="text;html=1;strokeColor=none;fillColor=none;align=center;verticalAlign=middle;whiteSpace=wrap;rounded=0;dashed=1;" parent="zOEphUjOcovV0QVA03cs-34" vertex="1">
          <mxGeometry x="68.43884892086331" y="77.74660633484163" width="43.453237410071935" height="21.900452488687783" as="geometry" />
        </mxCell>
        <mxCell id="zOEphUjOcovV0QVA03cs-40" value="" style="group" parent="zOEphUjOcovV0QVA03cs-33" vertex="1" connectable="0">
          <mxGeometry x="27.15827338129496" y="127.02262443438916" width="69.5251798561151" height="85.41176470588236" as="geometry" />
        </mxCell>
        <mxCell id="zOEphUjOcovV0QVA03cs-41" value="" style="outlineConnect=0;fillColor=#d5e8d4;strokeColor=#82b366;dashed=0;verticalLabelPosition=bottom;verticalAlign=top;align=center;html=1;fontSize=12;fontStyle=0;aspect=fixed;pointerEvents=1;shape=mxgraph.aws4.traditional_server;" parent="zOEphUjOcovV0QVA03cs-40" vertex="1">
          <mxGeometry x="10.320143884892085" width="48.88489208633093" height="84.73381294964028" as="geometry" />
        </mxCell>
        <mxCell id="zOEphUjOcovV0QVA03cs-42" value="&lt;font style=&quot;font-size: 13px&quot;&gt;医院&lt;br&gt;日报&lt;/font&gt;" style="text;html=1;strokeColor=none;fillColor=none;align=center;verticalAlign=middle;whiteSpace=wrap;rounded=0;dashed=1;" parent="zOEphUjOcovV0QVA03cs-40" vertex="1">
          <mxGeometry y="50.371040723981906" width="69.5251798561151" height="21.900452488687783" as="geometry" />
        </mxCell>
        <mxCell id="2CX6G7BixtwcyF8iLQ-1-12" style="edgeStyle=orthogonalEdgeStyle;rounded=1;orthogonalLoop=1;jettySize=auto;html=1;entryX=1;entryY=0.5;entryDx=0;entryDy=0;" parent="1" source="2CX6G7BixtwcyF8iLQ-1-11" target="zOEphUjOcovV0QVA03cs-32" edge="1">
          <mxGeometry relative="1" as="geometry" />
        </mxCell>
        <mxCell id="2CX6G7BixtwcyF8iLQ-1-14" value="" style="group" parent="1" vertex="1" connectable="0">
          <mxGeometry x="1507" y="374" width="56" height="60.5" as="geometry" />
        </mxCell>
        <mxCell id="2CX6G7BixtwcyF8iLQ-1-11" value="" style="pointerEvents=1;shadow=0;dashed=0;html=1;strokeColor=none;labelPosition=center;verticalLabelPosition=bottom;verticalAlign=top;align=center;fillColor=#505050;shape=mxgraph.mscae.intune.user_group" parent="2CX6G7BixtwcyF8iLQ-1-14" vertex="1">
          <mxGeometry width="50" height="37" as="geometry" />
        </mxCell>
        <mxCell id="2CX6G7BixtwcyF8iLQ-1-13" value="业务人员" style="text;html=1;strokeColor=none;fillColor=none;align=center;verticalAlign=middle;whiteSpace=wrap;rounded=0;" parent="2CX6G7BixtwcyF8iLQ-1-14" vertex="1">
          <mxGeometry y="40.5" width="56" height="20" as="geometry" />
        </mxCell>
        <mxCell id="2CX6G7BixtwcyF8iLQ-1-15" value="&lt;font style=&quot;font-size: 14px&quot;&gt;查看仲谋&amp;amp;医院日报数据&lt;/font&gt;" style="text;html=1;strokeColor=none;fillColor=none;align=center;verticalAlign=middle;whiteSpace=wrap;rounded=0;" parent="1" vertex="1">
          <mxGeometry x="1339" y="370" width="159" height="20" as="geometry" />
        </mxCell>
        <mxCell id="523SSdcDzX9E7wjEWsFp-3" value="&lt;font color=&quot;#f23607&quot; style=&quot;font-size: 13px&quot;&gt;Gateway节点主要工作是向集群提交任务&lt;/font&gt;" style="text;html=1;strokeColor=none;fillColor=none;align=center;verticalAlign=middle;whiteSpace=wrap;rounded=0;dashed=1;" vertex="1" parent="1">
          <mxGeometry x="572.5" y="278" width="119" height="29" as="geometry" />
        </mxCell>
        <mxCell id="523SSdcDzX9E7wjEWsFp-1" value="" style="shape=ext;rounded=1;html=1;whiteSpace=wrap;dashed=1;fillColor=#E6E6E6;" vertex="1" parent="1">
          <mxGeometry x="552" y="127" width="150" height="147.5" as="geometry" />
        </mxCell>
        <mxCell id="523SSdcDzX9E7wjEWsFp-11" value="" style="group" vertex="1" connectable="0" parent="1">
          <mxGeometry x="548" y="319" width="166" height="343" as="geometry" />
        </mxCell>
        <mxCell id="2CX6G7BixtwcyF8iLQ-1-27" value="" style="rounded=1;whiteSpace=wrap;html=1;dashed=1;fillColor=#f5f5f5;strokeColor=#666666;fontColor=#333333;" parent="523SSdcDzX9E7wjEWsFp-11" vertex="1">
          <mxGeometry width="166" height="343" as="geometry" />
        </mxCell>
        <mxCell id="zOEphUjOcovV0QVA03cs-20" value="&lt;font style=&quot;font-size: 14px&quot;&gt;EMR集群&lt;/font&gt;" style="text;html=1;strokeColor=none;fillColor=none;align=center;verticalAlign=middle;whiteSpace=wrap;rounded=0;dashed=1;" parent="523SSdcDzX9E7wjEWsFp-11" vertex="1">
          <mxGeometry x="45" y="5" width="69" height="20" as="geometry" />
        </mxCell>
        <mxCell id="zOEphUjOcovV0QVA03cs-19" value="" style="outlineConnect=0;fontColor=#232F3E;gradientColor=none;fillColor=#232F3E;strokeColor=none;dashed=0;verticalLabelPosition=bottom;verticalAlign=top;align=center;html=1;fontSize=12;fontStyle=0;aspect=fixed;pointerEvents=1;shape=mxgraph.aws4.forums;" parent="523SSdcDzX9E7wjEWsFp-11" vertex="1">
          <mxGeometry x="19.5" y="186" width="130" height="126.67" as="geometry" />
        </mxCell>
        <mxCell id="zOEphUjOcovV0QVA03cs-18" value="" style="outlineConnect=0;fontColor=#232F3E;gradientColor=none;fillColor=#232F3E;strokeColor=none;dashed=0;verticalLabelPosition=bottom;verticalAlign=top;align=center;html=1;fontSize=12;fontStyle=0;aspect=fixed;pointerEvents=1;shape=mxgraph.aws4.forums;" parent="523SSdcDzX9E7wjEWsFp-11" vertex="1">
          <mxGeometry x="19.5" y="29" width="130" height="126.67" as="geometry" />
        </mxCell>
        <mxCell id="523SSdcDzX9E7wjEWsFp-8" value="Master" style="text;html=1;strokeColor=none;fillColor=none;align=center;verticalAlign=middle;whiteSpace=wrap;rounded=0;dashed=1;" vertex="1" parent="523SSdcDzX9E7wjEWsFp-11">
          <mxGeometry x="64.5" y="155.66999999999996" width="40" height="20" as="geometry" />
        </mxCell>
        <mxCell id="523SSdcDzX9E7wjEWsFp-9" value="Worker" style="text;html=1;strokeColor=none;fillColor=none;align=center;verticalAlign=middle;whiteSpace=wrap;rounded=0;dashed=1;" vertex="1" parent="523SSdcDzX9E7wjEWsFp-11">
          <mxGeometry x="64.5" y="316" width="40" height="20" as="geometry" />
        </mxCell>
        <mxCell id="523SSdcDzX9E7wjEWsFp-14" value="" style="endArrow=classic;html=1;exitX=0.5;exitY=1;exitDx=0;exitDy=0;" edge="1" parent="1" source="523SSdcDzX9E7wjEWsFp-1">
          <mxGeometry width="50" height="50" relative="1" as="geometry">
            <mxPoint x="760.5" y="302" as="sourcePoint" />
            <mxPoint x="628" y="320" as="targetPoint" />
          </mxGeometry>
        </mxCell>
        <mxCell id="523SSdcDzX9E7wjEWsFp-22" value="" style="group" vertex="1" connectable="0" parent="1">
          <mxGeometry x="235" y="256" width="130" height="394" as="geometry" />
        </mxCell>
        <mxCell id="IMYLu6TOnblpSN0GXEDV-3" value="" style="rounded=1;whiteSpace=wrap;html=1;fillColor=#E6E6E6;" parent="523SSdcDzX9E7wjEWsFp-22" vertex="1">
          <mxGeometry y="23" width="130" height="371" as="geometry" />
        </mxCell>
        <mxCell id="523SSdcDzX9E7wjEWsFp-4" value="&lt;font style=&quot;font-size: 14px&quot;&gt;业务数据库&lt;/font&gt;" style="text;html=1;strokeColor=none;fillColor=none;align=center;verticalAlign=middle;whiteSpace=wrap;rounded=0;dashed=1;" vertex="1" parent="523SSdcDzX9E7wjEWsFp-22">
          <mxGeometry x="26.5" width="82.5" height="20" as="geometry" />
        </mxCell>
        <mxCell id="523SSdcDzX9E7wjEWsFp-18" value="子龙数据库" style="shape=cylinder;whiteSpace=wrap;html=1;boundedLbl=1;backgroundOutline=1;dashed=1;fillColor=#A9C4EB;dashPattern=1 4;strokeColor=#4C6487;" vertex="1" parent="523SSdcDzX9E7wjEWsFp-22">
          <mxGeometry y="38" width="129" height="56" as="geometry" />
        </mxCell>
        <mxCell id="523SSdcDzX9E7wjEWsFp-19" value="&lt;font color=&quot;#ff0303&quot;&gt;小暖数据库&lt;/font&gt;" style="shape=cylinder;whiteSpace=wrap;html=1;boundedLbl=1;backgroundOutline=1;dashed=1;fillColor=#A9C4EB;dashPattern=1 4;strokeColor=#4C6487;" vertex="1" parent="523SSdcDzX9E7wjEWsFp-22">
          <mxGeometry x="1" y="131" width="129" height="56" as="geometry" />
        </mxCell>
        <mxCell id="523SSdcDzX9E7wjEWsFp-20" value="&lt;font color=&quot;#ff051e&quot;&gt;阿里云数据库&lt;/font&gt;" style="shape=cylinder;whiteSpace=wrap;html=1;boundedLbl=1;backgroundOutline=1;dashed=1;fillColor=#A9C4EB;dashPattern=1 4;strokeColor=#4C6487;" vertex="1" parent="523SSdcDzX9E7wjEWsFp-22">
          <mxGeometry x="1" y="221" width="129" height="56" as="geometry" />
        </mxCell>
        <mxCell id="523SSdcDzX9E7wjEWsFp-21" value="&lt;font color=&quot;#ff032d&quot;&gt;其他数据库&lt;/font&gt;" style="shape=cylinder;whiteSpace=wrap;html=1;boundedLbl=1;backgroundOutline=1;dashed=1;fillColor=#A9C4EB;dashPattern=1 4;strokeColor=#4C6487;" vertex="1" parent="523SSdcDzX9E7wjEWsFp-22">
          <mxGeometry x="1" y="315" width="129" height="56" as="geometry" />
        </mxCell>
        <mxCell id="523SSdcDzX9E7wjEWsFp-24" value="" style="rounded=1;whiteSpace=wrap;html=1;fillColor=#E6E6E6;" vertex="1" parent="1">
          <mxGeometry x="730" y="-30" width="730" height="54" as="geometry" />
        </mxCell>
        <mxCell id="523SSdcDzX9E7wjEWsFp-25" value="&lt;span style=&quot;font-size: 14px&quot;&gt;EPP公用&lt;/span&gt;&lt;span style=&quot;font-size: 14px&quot;&gt;数据库&lt;/span&gt;" style="text;html=1;strokeColor=none;fillColor=none;align=center;verticalAlign=middle;whiteSpace=wrap;rounded=0;dashed=1;" vertex="1" parent="1">
          <mxGeometry x="1015.25" y="-60" width="109.5" height="20" as="geometry" />
        </mxCell>
        <mxCell id="523SSdcDzX9E7wjEWsFp-26" value="azkaban" style="shape=cylinder;whiteSpace=wrap;html=1;boundedLbl=1;backgroundOutline=1;dashed=1;fillColor=#A9C4EB;dashPattern=1 4;strokeColor=#4C6487;" vertex="1" parent="1">
          <mxGeometry x="734" y="-22" width="93" height="44" as="geometry" />
        </mxCell>
        <mxCell id="523SSdcDzX9E7wjEWsFp-30" value="Gateway节点" style="text;html=1;strokeColor=none;fillColor=none;align=center;verticalAlign=middle;whiteSpace=wrap;rounded=0;dashed=1;dashPattern=1 4;" vertex="1" parent="1">
          <mxGeometry x="589.5" y="107" width="76" height="20" as="geometry" />
        </mxCell>
        <mxCell id="523SSdcDzX9E7wjEWsFp-34" style="edgeStyle=orthogonalEdgeStyle;rounded=1;orthogonalLoop=1;jettySize=auto;html=1;entryX=0.5;entryY=1;entryDx=0;entryDy=0;" edge="1" parent="1" source="523SSdcDzX9E7wjEWsFp-32" target="523SSdcDzX9E7wjEWsFp-26">
          <mxGeometry relative="1" as="geometry" />
        </mxCell>
        <mxCell id="523SSdcDzX9E7wjEWsFp-32" value="Azkaban调度系统" style="rounded=1;whiteSpace=wrap;html=1;dashed=1;dashPattern=1 4;strokeColor=#d6b656;fillColor=#fff2cc;" vertex="1" parent="1">
          <mxGeometry x="556.5" y="140" width="142" height="30" as="geometry" />
        </mxCell>
        <mxCell id="523SSdcDzX9E7wjEWsFp-36" style="edgeStyle=orthogonalEdgeStyle;rounded=1;orthogonalLoop=1;jettySize=auto;html=1;entryX=0.5;entryY=1;entryDx=0;entryDy=0;" edge="1" parent="1" source="523SSdcDzX9E7wjEWsFp-33" target="523SSdcDzX9E7wjEWsFp-35">
          <mxGeometry relative="1" as="geometry" />
        </mxCell>
        <mxCell id="523SSdcDzX9E7wjEWsFp-33" value="数据仓库" style="rounded=1;whiteSpace=wrap;html=1;dashed=1;dashPattern=1 4;strokeColor=#d6b656;fillColor=#fff2cc;" vertex="1" parent="1">
          <mxGeometry x="556.5" y="170" width="143.5" height="30" as="geometry" />
        </mxCell>
        <mxCell id="523SSdcDzX9E7wjEWsFp-35" value="&lt;font color=&quot;#ff032d&quot;&gt;pet_medical_meta&lt;/font&gt;" style="shape=cylinder;whiteSpace=wrap;html=1;boundedLbl=1;backgroundOutline=1;dashed=1;fillColor=#A9C4EB;dashPattern=1 4;strokeColor=#4C6487;" vertex="1" parent="1">
          <mxGeometry x="827" y="-22" width="113" height="44" as="geometry" />
        </mxCell>
        <mxCell id="523SSdcDzX9E7wjEWsFp-40" style="edgeStyle=orthogonalEdgeStyle;rounded=1;orthogonalLoop=1;jettySize=auto;html=1;" edge="1" parent="1" source="523SSdcDzX9E7wjEWsFp-37" target="523SSdcDzX9E7wjEWsFp-39">
          <mxGeometry relative="1" as="geometry" />
        </mxCell>
        <mxCell id="523SSdcDzX9E7wjEWsFp-37" value="数据仓库-应用层" style="rounded=1;whiteSpace=wrap;html=1;dashed=1;dashPattern=1 4;strokeColor=#d6b656;fillColor=#fff2cc;" vertex="1" parent="1">
          <mxGeometry x="556.25" y="200" width="143.5" height="30" as="geometry" />
        </mxCell>
        <mxCell id="523SSdcDzX9E7wjEWsFp-39" value="&lt;font color=&quot;#ff0011&quot;&gt;pet_medical&lt;/font&gt;" style="shape=cylinder;whiteSpace=wrap;html=1;boundedLbl=1;backgroundOutline=1;dashed=1;fillColor=#A9C4EB;dashPattern=1 4;strokeColor=#4C6487;" vertex="1" parent="1">
          <mxGeometry x="940" y="-22" width="100" height="44" as="geometry" />
        </mxCell>
        <mxCell id="523SSdcDzX9E7wjEWsFp-41" value="读取azkaban元数据进行调度" style="text;html=1;strokeColor=none;fillColor=none;align=center;verticalAlign=middle;whiteSpace=wrap;rounded=0;dashed=1;dashPattern=1 4;" vertex="1" parent="1">
          <mxGeometry x="660" y="60" width="120" height="20" as="geometry" />
        </mxCell>
        <mxCell id="523SSdcDzX9E7wjEWsFp-42" value="读取数仓元数据&lt;br&gt;进行数据的抽取" style="text;html=1;strokeColor=none;fillColor=none;align=center;verticalAlign=middle;whiteSpace=wrap;rounded=0;dashed=1;dashPattern=1 4;" vertex="1" parent="1">
          <mxGeometry x="780" y="87" width="120" height="20" as="geometry" />
        </mxCell>
        <mxCell id="523SSdcDzX9E7wjEWsFp-43" value="将计算的结果数据&lt;br&gt;发送到pet_medical&lt;br&gt;库中，供仲谋和&lt;br&gt;医院日报展示使用" style="text;html=1;strokeColor=none;fillColor=none;align=center;verticalAlign=middle;whiteSpace=wrap;rounded=0;dashed=1;dashPattern=1 4;" vertex="1" parent="1">
          <mxGeometry x="880" y="140" width="120" height="20" as="geometry" />
        </mxCell>
        <mxCell id="523SSdcDzX9E7wjEWsFp-44" style="edgeStyle=orthogonalEdgeStyle;rounded=1;orthogonalLoop=1;jettySize=auto;html=1;" edge="1" parent="1" source="zOEphUjOcovV0QVA03cs-32">
          <mxGeometry relative="1" as="geometry">
            <mxPoint x="1000" y="22" as="targetPoint" />
            <Array as="points">
              <mxPoint x="1040" y="392" />
              <mxPoint x="1040" y="22" />
            </Array>
          </mxGeometry>
        </mxCell>
        <mxCell id="523SSdcDzX9E7wjEWsFp-45" value="仲谋&amp;amp;医院日报读取EMR集群计算好的数据然后展示" style="text;html=1;strokeColor=none;fillColor=none;align=center;verticalAlign=middle;whiteSpace=wrap;rounded=0;dashed=1;dashPattern=1 4;" vertex="1" parent="1">
          <mxGeometry x="1030" y="330" width="120" height="20" as="geometry" />
        </mxCell>
        <mxCell id="523SSdcDzX9E7wjEWsFp-48" value="emr_metadata" style="shape=cylinder;whiteSpace=wrap;html=1;boundedLbl=1;backgroundOutline=1;dashed=1;fillColor=#A9C4EB;dashPattern=1 4;strokeColor=#4C6487;" vertex="1" parent="1">
          <mxGeometry x="1040" y="-22" width="100" height="44" as="geometry" />
        </mxCell>
        <mxCell id="523SSdcDzX9E7wjEWsFp-49" style="edgeStyle=orthogonalEdgeStyle;rounded=1;orthogonalLoop=1;jettySize=auto;html=1;entryX=0.5;entryY=1;entryDx=0;entryDy=0;" edge="1" parent="1" source="2CX6G7BixtwcyF8iLQ-1-27" target="523SSdcDzX9E7wjEWsFp-48">
          <mxGeometry relative="1" as="geometry">
            <Array as="points">
              <mxPoint x="850" y="491" />
              <mxPoint x="850" y="270" />
              <mxPoint x="1090" y="270" />
            </Array>
          </mxGeometry>
        </mxCell>
        <mxCell id="523SSdcDzX9E7wjEWsFp-50" value="emr集群中的元数据存储" style="text;html=1;strokeColor=none;fillColor=none;align=center;verticalAlign=middle;whiteSpace=wrap;rounded=0;dashed=1;dashPattern=1 4;" vertex="1" parent="1">
          <mxGeometry x="720" y="410" width="166" height="20" as="geometry" />
        </mxCell>
        <mxCell id="523SSdcDzX9E7wjEWsFp-52" value="&lt;font color=&quot;#f23607&quot; style=&quot;font-size: 13px&quot;&gt;问题：这个地方待考虑，可能需要EMR集群访问pet_medical库&lt;/font&gt;" style="text;html=1;strokeColor=none;fillColor=none;align=center;verticalAlign=middle;whiteSpace=wrap;rounded=0;dashed=1;" vertex="1" parent="1">
          <mxGeometry x="720" y="216" width="246" height="40" as="geometry" />
        </mxCell>
        <mxCell id="523SSdcDzX9E7wjEWsFp-53" style="edgeStyle=orthogonalEdgeStyle;rounded=1;orthogonalLoop=1;jettySize=auto;html=1;" edge="1" parent="1" source="zOEphUjOcovV0QVA03cs-41">
          <mxGeometry relative="1" as="geometry">
            <mxPoint x="1009" y="25" as="targetPoint" />
            <Array as="points">
              <mxPoint x="1009" y="456" />
            </Array>
          </mxGeometry>
        </mxCell>
        <mxCell id="523SSdcDzX9E7wjEWsFp-54" value="&lt;p class=&quot;p1&quot; style=&quot;margin: 0px ; font-stretch: normal ; font-size: 13px ; line-height: normal ; font-family: &amp;#34;helvetica neue&amp;#34;&quot;&gt;&lt;font color=&quot;#ff0d0d&quot;&gt;supervision&lt;/font&gt;&lt;/p&gt;" style="shape=cylinder;whiteSpace=wrap;html=1;boundedLbl=1;backgroundOutline=1;dashed=1;fillColor=#A9C4EB;dashPattern=1 4;strokeColor=#4C6487;" vertex="1" parent="1">
          <mxGeometry x="1140" y="-22" width="100" height="44" as="geometry" />
        </mxCell>
        <mxCell id="523SSdcDzX9E7wjEWsFp-55" value="&lt;p class=&quot;p1&quot; style=&quot;margin: 0px ; font-stretch: normal ; font-size: 13px ; line-height: normal ; font-family: &amp;#34;helvetica neue&amp;#34;&quot;&gt;&lt;font color=&quot;#ff0335&quot;&gt;supervision_result&lt;/font&gt;&lt;/p&gt;" style="shape=cylinder;whiteSpace=wrap;html=1;boundedLbl=1;backgroundOutline=1;dashed=1;fillColor=#A9C4EB;dashPattern=1 4;strokeColor=#4C6487;" vertex="1" parent="1">
          <mxGeometry x="1239" y="-22" width="121" height="44" as="geometry" />
        </mxCell>
        <mxCell id="523SSdcDzX9E7wjEWsFp-56" value="&lt;p class=&quot;p1&quot; style=&quot;margin: 0px ; font-stretch: normal ; font-size: 13px ; line-height: normal ; font-family: &amp;#34;helvetica neue&amp;#34;&quot;&gt;&lt;font color=&quot;#ff0829&quot;&gt;grant_auth&lt;/font&gt;&lt;/p&gt;" style="shape=cylinder;whiteSpace=wrap;html=1;boundedLbl=1;backgroundOutline=1;dashed=1;fillColor=#A9C4EB;dashPattern=1 4;strokeColor=#4C6487;" vertex="1" parent="1">
          <mxGeometry x="1360" y="-22" width="100" height="44" as="geometry" />
        </mxCell>
        <mxCell id="523SSdcDzX9E7wjEWsFp-57" style="edgeStyle=orthogonalEdgeStyle;rounded=1;orthogonalLoop=1;jettySize=auto;html=1;entryX=0.5;entryY=1;entryDx=0;entryDy=0;" edge="1" parent="1" source="zOEphUjOcovV0QVA03cs-37" target="523SSdcDzX9E7wjEWsFp-54">
          <mxGeometry relative="1" as="geometry">
            <Array as="points">
              <mxPoint x="1230" y="150" />
              <mxPoint x="1190" y="150" />
            </Array>
          </mxGeometry>
        </mxCell>
        <mxCell id="523SSdcDzX9E7wjEWsFp-58" style="edgeStyle=orthogonalEdgeStyle;rounded=1;orthogonalLoop=1;jettySize=auto;html=1;exitX=0.5;exitY=0;exitDx=0;exitDy=0;" edge="1" parent="1" source="zOEphUjOcovV0QVA03cs-37" target="523SSdcDzX9E7wjEWsFp-55">
          <mxGeometry relative="1" as="geometry" />
        </mxCell>
        <mxCell id="523SSdcDzX9E7wjEWsFp-60" style="edgeStyle=orthogonalEdgeStyle;rounded=1;orthogonalLoop=1;jettySize=auto;html=1;entryX=0.5;entryY=1;entryDx=0;entryDy=0;" edge="1" parent="1" source="zOEphUjOcovV0QVA03cs-37" target="523SSdcDzX9E7wjEWsFp-56">
          <mxGeometry relative="1" as="geometry">
            <Array as="points">
              <mxPoint x="1230" y="150" />
              <mxPoint x="1410" y="150" />
            </Array>
          </mxGeometry>
        </mxCell>
        <mxCell id="523SSdcDzX9E7wjEWsFp-61" value="医院日报读取pet_medical库数据" style="text;html=1;strokeColor=none;fillColor=none;align=center;verticalAlign=middle;whiteSpace=wrap;rounded=0;dashed=1;dashPattern=1 4;" vertex="1" parent="1">
          <mxGeometry x="978" y="459.5" width="184" height="20" as="geometry" />
        </mxCell>
        <mxCell id="523SSdcDzX9E7wjEWsFp-62" value="仲谋元数据（三个库）" style="text;html=1;strokeColor=none;fillColor=none;align=center;verticalAlign=middle;whiteSpace=wrap;rounded=0;dashed=1;dashPattern=1 4;" vertex="1" parent="1">
          <mxGeometry x="1230" y="175" width="130" height="20" as="geometry" />
        </mxCell>
      </root>
    </mxGraphModel>
  </diagram>
</mxfile>
